<svg
  xmlns="http://www.w3.org/2000/svg"
  viewBox="0 0 900 560"
  role="img"
  aria-label="Example of a back-of-ID photo"
>
  <defs>
    <linearGradient id="bg-back" x1="0" x2="1" y1="0" y2="1">
      <stop offset="0" stop-color="#f3f6ff" />
      <stop offset="1" stop-color="#e9f3ff" />
    </linearGradient>
    <linearGradient id="card-back" x1="0" x2="1" y1="0" y2="1">
      <stop offset="0" stop-color="#ffffff" />
      <stop offset="1" stop-color="#f4f7ff" />
    </linearGradient>
    <linearGradient id="tag-back" x1="0" x2="1">
      <stop offset="0" stop-color="#0078ff" />
      <stop offset="1" stop-color="#75b5ff" />
    </linearGradient>
  </defs>

  <rect width="900" height="560" rx="40" fill="url(#bg-back)" />

  <rect
    x="90"
    y="90"
    width="720"
    height="380"
    rx="28"
    fill="url(#card-back)"
    stroke="#cdd8f2"
    stroke-width="6"
  />

  <rect x="120" y="110" width="190" height="46" rx="23" fill="url(#tag-back)" />
  <text
    x="215"
    y="142"
    text-anchor="middle"
    font-family="ui-sans-serif, system-ui, -apple-system, Segoe UI, Roboto, Arial"
    font-size="20"
    fill="#ffffff"
    font-weight="700"
  >
    BACK
  </text>

  <rect x="130" y="175" width="620" height="28" rx="14" fill="#dbe6ff" />
  <rect x="130" y="220" width="520" height="20" rx="10" fill="#e3ecff" />
  <rect x="130" y="255" width="560" height="20" rx="10" fill="#e3ecff" />
  <rect x="130" y="290" width="480" height="20" rx="10" fill="#e3ecff" />

  <g opacity="0.85">
    <rect x="130" y="335" width="620" height="78" rx="16" fill="#eef4ff" />
    <g fill="#9db3df">
      <rect x="150" y="352" width="8" height="44" rx="4" />
      <rect x="166" y="352" width="5" height="44" rx="2.5" />
      <rect x="178" y="352" width="10" height="44" rx="5" />
      <rect x="194" y="352" width="4" height="44" rx="2" />
      <rect x="204" y="352" width="7" height="44" rx="3.5" />
      <rect x="218" y="352" width="3" height="44" rx="1.5" />
      <rect x="226" y="352" width="12" height="44" rx="6" />
      <rect x="244" y="352" width="6" height="44" rx="3" />
      <rect x="256" y="352" width="9" height="44" rx="4.5" />
      <rect x="270" y="352" width="4" height="44" rx="2" />
      <rect x="280" y="352" width="11" height="44" rx="5.5" />
      <rect x="298" y="352" width="5" height="44" rx="2.5" />
      <rect x="310" y="352" width="8" height="44" rx="4" />
      <rect x="324" y="352" width="4" height="44" rx="2" />
      <rect x="334" y="352" width="12" height="44" rx="6" />
      <rect x="352" y="352" width="6" height="44" rx="3" />
      <rect x="364" y="352" width="9" height="44" rx="4.5" />
      <rect x="378" y="352" width="4" height="44" rx="2" />
      <rect x="388" y="352" width="11" height="44" rx="5.5" />
      <rect x="406" y="352" width="5" height="44" rx="2.5" />
      <rect x="418" y="352" width="10" height="44" rx="5" />
      <rect x="434" y="352" width="4" height="44" rx="2" />
      <rect x="444" y="352" width="7" height="44" rx="3.5" />
      <rect x="458" y="352" width="3" height="44" rx="1.5" />
      <rect x="466" y="352" width="12" height="44" rx="6" />
      <rect x="484" y="352" width="6" height="44" rx="3" />
      <rect x="496" y="352" width="9" height="44" rx="4.5" />
      <rect x="510" y="352" width="4" height="44" rx="2" />
      <rect x="520" y="352" width="11" height="44" rx="5.5" />
      <rect x="538" y="352" width="5" height="44" rx="2.5" />
      <rect x="550" y="352" width="8" height="44" rx="4" />
      <rect x="564" y="352" width="4" height="44" rx="2" />
      <rect x="574" y="352" width="12" height="44" rx="6" />
      <rect x="592" y="352" width="6" height="44" rx="3" />
      <rect x="604" y="352" width="9" height="44" rx="4.5" />
      <rect x="618" y="352" width="4" height="44" rx="2" />
      <rect x="628" y="352" width="11" height="44" rx="5.5" />
      <rect x="646" y="352" width="5" height="44" rx="2.5" />
      <rect x="658" y="352" width="10" height="44" rx="5" />
      <rect x="674" y="352" width="4" height="44" rx="2" />
      <rect x="684" y="352" width="7" height="44" rx="3.5" />
      <rect x="698" y="352" width="3" height="44" rx="1.5" />
      <rect x="706" y="352" width="12" height="44" rx="6" />
    </g>
  </g>

  <text
    x="450"
    y="515"
    text-anchor="middle"
    font-family="ui-sans-serif, system-ui, -apple-system, Segoe UI, Roboto, Arial"
    font-size="22"
    fill="#6b7aa7"
  >
    Example: Capture the back clearly (barcode/text readable)
  </text>
</svg>

